<?xml version="1.0" encoding="UTF-8" ?>
<!DOCTYPE svg PUBLIC "-//W3C//DTD SVG 1.1//EN" "http://www.w3.org/Graphics/SVG/1.1/DTD/svg11.dtd">
<svg width="878pt" height="878pt" viewBox="0 0 878 878" version="1.1" xmlns="http://www.w3.org/2000/svg">
<g id="#000000ff">
<path fill="#000000" opacity="1.00" d=" M 62.58 0.00 L 733.39 0.00 C 738.92 0.90 744.39 2.74 748.97 6.02 C 756.07 11.12 760.99 19.18 762.17 27.85 C 762.87 32.87 762.71 37.95 762.69 43.00 C 762.56 52.33 762.76 61.67 762.57 71.00 C 762.54 74.96 762.37 78.98 763.14 82.89 C 766.71 83.63 770.38 83.51 774.01 83.49 C 786.00 83.26 798.00 83.53 810.00 83.34 C 815.22 83.33 820.51 83.12 825.64 84.29 C 832.85 85.94 839.06 91.17 842.14 97.87 C 843.87 101.65 844.28 105.86 844.40 109.97 C 844.30 155.64 844.37 201.32 844.35 247.00 C 844.30 253.61 844.87 260.28 843.75 266.83 C 842.13 275.88 834.66 283.44 825.79 285.60 C 818.24 287.46 810.48 288.32 802.87 289.91 C 753.16 298.72 703.60 308.32 653.86 317.00 C 611.61 324.88 569.31 332.53 527.01 340.17 C 498.13 345.56 469.23 350.87 440.30 355.98 C 438.28 356.37 436.25 356.79 434.36 357.59 C 432.88 363.26 433.64 369.20 433.59 375.00 C 433.61 391.66 433.61 408.33 433.58 425.00 C 433.62 430.52 433.05 436.12 434.15 441.58 C 444.55 442.95 455.15 440.68 465.51 442.65 C 477.95 445.16 488.31 455.75 490.46 468.27 C 491.59 475.12 491.02 482.09 491.09 489.00 C 491.08 603.00 491.09 717.00 491.09 831.00 C 491.04 837.62 491.52 844.28 490.60 850.86 C 489.29 860.17 483.39 868.63 475.29 873.34 C 471.33 875.67 466.92 877.12 462.43 878.00 L 355.59 878.00 C 344.85 876.43 334.91 869.75 330.03 859.96 C 325.55 851.36 326.72 841.34 326.64 832.00 C 326.66 725.00 326.64 618.00 326.65 511.00 C 326.63 501.33 326.71 491.67 326.58 482.00 C 326.58 475.58 326.47 468.94 328.80 462.85 C 332.35 453.56 340.33 445.97 349.88 443.14 C 360.99 440.30 372.54 443.08 383.78 441.58 C 384.82 436.12 384.28 430.52 384.32 425.00 C 384.26 400.00 384.34 375.01 384.28 350.01 C 384.30 344.28 383.94 338.51 384.73 332.82 C 385.61 326.62 389.09 320.90 394.02 317.08 C 397.83 314.12 402.62 312.89 407.28 312.00 C 424.64 308.91 441.99 305.76 459.31 302.47 C 515.59 292.54 571.71 281.78 627.99 271.84 C 678.89 262.30 729.89 253.28 780.81 243.85 C 785.36 243.04 790.06 242.79 794.44 241.22 C 795.13 238.90 795.19 236.46 795.26 234.07 C 795.03 206.71 795.21 179.36 795.15 152.00 C 795.04 145.73 795.74 139.41 794.72 133.19 C 789.53 132.22 784.23 132.73 779.00 132.65 C 773.72 132.74 768.38 132.23 763.15 133.19 C 762.37 137.07 762.54 141.06 762.57 145.00 C 762.77 155.00 762.55 165.00 762.70 175.00 C 762.75 181.87 762.98 188.98 760.42 195.49 C 757.47 203.45 751.15 210.01 743.41 213.44 C 738.29 215.83 732.57 216.35 727.00 216.41 C 694.00 216.29 661.00 216.38 628.00 216.35 C 452.67 216.35 277.33 216.35 102.00 216.35 C 93.00 216.37 84.00 216.29 75.01 216.41 C 69.84 216.44 64.62 216.50 59.53 215.51 C 47.30 213.09 36.94 202.92 34.47 190.68 C 33.10 183.54 33.70 176.22 33.65 169.00 C 33.64 123.99 33.68 78.99 33.62 33.98 C 33.66 27.32 35.01 20.46 38.94 14.94 C 44.15 6.78 53.05 1.38 62.58 0.00 M 59.93 27.97 C 58.07 31.68 58.59 35.99 58.52 40.00 C 58.90 53.65 58.14 67.32 58.85 80.94 C 64.79 78.93 69.98 75.29 75.73 72.86 C 83.66 69.24 92.22 67.20 100.77 65.71 C 102.88 65.72 105.00 65.71 107.10 65.92 C 107.82 69.91 107.58 73.98 107.55 78.00 C 107.38 88.67 107.71 99.34 107.39 110.00 C 107.39 113.37 107.67 116.74 107.92 120.10 C 108.56 126.37 111.71 132.37 116.39 136.59 C 123.46 143.05 134.57 144.29 143.09 140.09 C 149.65 136.66 155.07 130.35 156.08 122.86 C 156.88 116.94 156.34 110.95 156.43 105.00 C 156.57 94.12 156.23 83.23 156.49 72.36 C 161.11 73.00 165.50 74.69 170.02 75.80 C 188.24 80.37 207.26 83.59 226.03 80.79 C 234.68 79.70 242.95 76.56 251.66 75.90 C 251.39 80.56 250.09 85.22 250.91 89.90 C 251.84 95.37 254.32 100.73 258.44 104.53 C 263.73 109.14 271.15 110.66 277.99 109.86 C 284.21 109.17 289.89 105.47 293.35 100.31 C 295.56 96.95 296.33 92.93 297.52 89.14 C 300.33 94.53 302.29 100.33 303.78 106.21 C 305.72 113.82 307.76 121.40 310.08 128.90 C 312.54 137.32 316.14 145.35 319.96 153.22 C 323.26 160.02 329.47 165.87 337.18 166.90 C 347.43 168.51 357.67 162.72 363.27 154.32 C 367.04 148.43 368.53 141.47 369.99 134.72 C 372.68 120.31 371.18 105.60 370.35 91.09 C 369.97 81.51 370.13 71.85 371.63 62.36 C 372.13 59.66 372.59 56.74 374.42 54.56 C 378.59 54.08 382.81 54.43 387.00 54.18 C 395.37 53.94 403.65 52.71 411.98 51.96 C 415.78 51.57 419.52 52.59 423.05 53.90 C 427.94 55.72 432.86 57.49 437.91 58.86 C 458.46 64.50 479.67 68.08 501.01 68.47 C 520.28 68.39 539.95 68.14 558.63 73.55 C 573.10 77.80 585.44 87.62 594.19 99.76 C 601.33 109.76 607.28 120.59 612.13 131.88 C 614.38 137.14 618.10 142.24 623.70 144.21 C 637.01 149.01 653.30 140.87 657.33 127.30 C 658.88 120.58 658.12 113.61 658.93 106.80 C 660.46 93.95 663.02 81.25 665.39 68.54 C 666.39 63.35 666.53 57.99 667.97 52.89 C 669.57 52.02 671.36 51.62 673.12 51.20 C 680.87 49.53 688.72 48.35 696.59 47.41 C 701.92 46.79 707.19 44.83 711.19 41.17 C 714.35 38.42 715.85 34.37 718.56 31.26 C 724.67 29.62 731.12 31.70 737.37 31.01 C 736.53 28.63 735.37 25.91 732.61 25.33 C 727.17 24.07 721.53 24.80 716.00 24.69 C 499.97 24.68 283.94 24.70 67.91 24.68 C 65.03 24.79 61.47 25.12 59.93 27.97 M 458.38 105.63 C 450.13 107.61 443.67 114.90 442.08 123.15 C 440.91 129.13 441.27 135.59 443.90 141.16 C 446.89 147.04 452.41 151.90 459.04 153.02 C 466.76 154.47 475.67 153.20 481.36 147.36 C 491.15 137.86 490.65 120.39 481.04 110.95 C 475.08 105.39 466.15 103.87 458.38 105.63 Z" />
</g>
<g id="#4682b4ff">
<path fill="#4682b4" opacity="1.00" d=" M 59.93 27.97 C 61.47 25.12 65.03 24.79 67.91 24.68 C 283.94 24.70 499.97 24.68 716.00 24.69 C 721.53 24.80 727.17 24.07 732.61 25.33 C 735.37 25.91 736.53 28.63 737.37 31.01 C 731.12 31.70 724.67 29.62 718.56 31.26 C 715.85 34.37 714.35 38.42 711.19 41.17 C 707.19 44.83 701.92 46.79 696.59 47.41 C 688.72 48.35 680.87 49.53 673.12 51.20 C 671.36 51.62 669.57 52.02 667.97 52.89 C 666.53 57.99 666.39 63.35 665.39 68.54 C 663.02 81.25 660.46 93.95 658.93 106.80 C 658.12 113.61 658.88 120.58 657.33 127.30 C 653.30 140.87 637.01 149.01 623.70 144.21 C 618.10 142.24 614.38 137.14 612.13 131.88 C 607.28 120.59 601.33 109.76 594.19 99.76 C 585.44 87.62 573.10 77.80 558.63 73.55 C 539.95 68.14 520.28 68.39 501.01 68.47 C 479.67 68.08 458.46 64.50 437.91 58.86 C 432.86 57.49 427.94 55.72 423.05 53.90 C 419.52 52.59 415.78 51.57 411.98 51.96 C 403.65 52.71 395.37 53.94 387.00 54.18 C 382.81 54.43 378.59 54.08 374.42 54.56 C 372.59 56.74 372.13 59.66 371.63 62.36 C 370.13 71.85 369.97 81.51 370.35 91.09 C 371.18 105.60 372.68 120.31 369.99 134.72 C 368.53 141.47 367.04 148.43 363.27 154.32 C 357.67 162.72 347.43 168.51 337.18 166.90 C 329.47 165.87 323.26 160.02 319.96 153.22 C 316.14 145.35 312.54 137.32 310.08 128.90 C 307.76 121.40 305.72 113.82 303.78 106.21 C 302.29 100.33 300.33 94.53 297.52 89.14 C 296.33 92.93 295.56 96.95 293.35 100.31 C 289.89 105.47 284.21 109.17 277.99 109.86 C 271.15 110.66 263.73 109.14 258.44 104.53 C 254.32 100.73 251.84 95.37 250.91 89.90 C 250.09 85.22 251.39 80.56 251.66 75.90 C 242.95 76.56 234.68 79.70 226.03 80.79 C 207.26 83.59 188.24 80.37 170.02 75.80 C 165.50 74.69 161.11 73.00 156.49 72.36 C 156.23 83.23 156.57 94.12 156.43 105.00 C 156.34 110.95 156.88 116.94 156.08 122.86 C 155.07 130.35 149.65 136.66 143.09 140.09 C 134.57 144.29 123.46 143.05 116.39 136.59 C 111.71 132.37 108.56 126.37 107.92 120.10 C 107.54 108.41 107.96 96.70 107.80 85.00 C 107.68 78.50 108.37 71.94 107.42 65.48 C 105.20 65.32 102.98 65.48 100.77 65.71 C 92.22 67.20 83.66 69.24 75.73 72.86 C 69.98 75.29 64.79 78.93 58.85 80.94 C 58.14 67.32 58.90 53.65 58.52 40.00 C 58.59 35.99 58.07 31.68 59.93 27.97 Z" />
<path fill="#4682b4" opacity="1.00" d=" M 458.38 105.63 C 466.15 103.87 475.08 105.39 481.04 110.95 C 490.65 120.39 491.15 137.86 481.36 147.36 C 475.67 153.20 466.76 154.47 459.04 153.02 C 452.41 151.90 446.89 147.04 443.90 141.16 C 441.27 135.59 440.91 129.13 442.08 123.15 C 443.67 114.90 450.13 107.61 458.38 105.63 Z" />
</g>
</svg>
